<svg id="Icons" xmlns="http://www.w3.org/2000/svg" viewBox="0 0 66 66"><defs><style>.cls-1{fill:#349f59;}.cls-2{fill:#3dbb69;}.cls-3{opacity:0.15;}.cls-4{fill:#fffcf2;}</style></defs><title>key</title><g id="Key"><g id="Circle_Shadow" data-name="Circle Shadow"><circle class="cls-1" cx="33" cy="34" r="31"/></g><g id="Circle"><circle class="cls-2" cx="33" cy="32" r="31"/></g><path id="Long_Shadow" data-name="Long Shadow" class="cls-3" d="M63.5,37.52l-18-18L31.21,23.21,29.75,33,17.29,47.71,32.58,63H33A31,31,0,0,0,63.5,37.52Z"/><g id="Key-2" data-name="Key"><path class="cls-4" d="M37,16A12,12,0,0,0,25.94,32.64l-8.65,8.65h0A1,1,0,0,0,17,42v5a1,1,0,0,0,1,1h5a1,1,0,0,0,1-1V44h3a1,1,0,0,0,1-1V39.41l1.82-1.82A12,12,0,1,0,37,16Zm2,14a4,4,0,1,1,4-4A4,4,0,0,1,39,30Z"/></g></g></svg>