<svg id="Icons" xmlns="http://www.w3.org/2000/svg" viewBox="0 0 66 66"><defs><style>.cls-1{fill:#349f59;}.cls-2{fill:#3dbb69;}.cls-3{opacity:0.15;}.cls-4{fill:#fffcf2;}.cls-5{fill:#344e5f;}</style></defs><title>plus</title><g id="Plus"><g id="Circle_Shadow" data-name="Circle Shadow"><circle class="cls-1" cx="33" cy="34" r="31"/></g><g id="Circle"><circle class="cls-2" cx="33" cy="32" r="31"/></g><path id="Long_Shadow" data-name="Long Shadow" class="cls-3" d="M20.27,44.73,38.12,62.57A31,31,0,0,0,63.57,37.12L45.73,19.27Z"/><g id="Circle-2" data-name="Circle"><circle class="cls-4" cx="33" cy="32" r="18" transform="translate(-12.96 32.71) rotate(-45)"/></g><g id="Plus-2" data-name="Plus"><path class="cls-5" d="M41,30H35V24a2,2,0,0,0-4,0v6H25a2,2,0,1,0,0,4h6v6a2,2,0,0,0,4,0V34h6a2,2,0,1,0,0-4Z"/></g></g></svg>